<svg id="Artboard_2" data-name="Artboard 2" xmlns="http://www.w3.org/2000/svg" xmlns:xlink="http://www.w3.org/1999/xlink" width="309.293" height="78.659" viewBox="0 0 309.293 78.659">
  <defs>
    <linearGradient id="linear-gradient" x1="0.076" y1="0.308" x2="0.993" y2="0.97" gradientUnits="objectBoundingBox">
      <stop offset="0" stop-color="#43fecb"/>
      <stop offset="1" stop-color="#00e4a6"/>
    </linearGradient>
    <linearGradient id="linear-gradient-2" x1="0.288" y1="0.416" x2="1.204" y2="0.759" gradientUnits="objectBoundingBox">
      <stop offset="0" stop-color="#25282a"/>
      <stop offset="0.18" stop-color="#323537"/>
      <stop offset="0.5" stop-color="#545759"/>
      <stop offset="0.94" stop-color="#8c8f91"/>
      <stop offset="1" stop-color="#949799"/>
    </linearGradient>
    <linearGradient id="linear-gradient-3" x1="0.063" y1="0.404" x2="0.961" y2="0.723" gradientUnits="objectBoundingBox">
      <stop offset="0" stop-color="#43fecb"/>
      <stop offset="1" stop-color="#43fecb"/>
    </linearGradient>
    <linearGradient id="linear-gradient-4" x1="-0.119" y1="0.187" x2="0.874" y2="0.545" xlink:href="#linear-gradient"/>
  </defs>
  <path id="Path_5" data-name="Path 5" d="M390,0H350.794c.142,21.57-16.182,41.489-37.734,41.761l1.856,34.585s41.223-8.728,55.475-24.88c14.228,16.151,34.486,20.828,57.72,20.976h0L427.8,46.889C406.275,46.623,389.857,21.57,390,0Z" transform="translate(-119.405 0)" fill="url(#linear-gradient)"/>
  <path id="Path_6" data-name="Path 6" d="M464.056,39.453V78.659a78.2,78.2,0,0,1-58.3-26.544A78.115,78.115,0,0,0,425.357,0h0A39.2,39.2,0,0,0,464.056,39.453Z" transform="translate(-154.763 0)" fill="url(#linear-gradient-2)"/>
  <path id="Path_7" data-name="Path 7" d="M369.806,52.116a78.2,78.2,0,0,1-58.3,26.544V39.453A39.194,39.194,0,0,0,350.2,0h0a78.109,78.109,0,0,0,19.6,52.116Z" transform="translate(-118.814)" fill="url(#linear-gradient-3)"/>
  <path id="Path_8" data-name="Path 8" d="M413.269,0a78.115,78.115,0,0,1-19.6,52.11A78.109,78.109,0,0,1,374.069,0Z" transform="translate(-142.675 0)" fill="url(#linear-gradient-4)"/>
  <path id="Path_9" data-name="Path 9" d="M41.668,31.464v39.2h-9.5l-.217-5.889c-2.765,4.145-7.126,6.619-13.164,6.619C8.147,71.393,0,63.315,0,51.246,0,38.942,8.147,30.74,18.762,30.74c6.037,0,10.4,2.474,13.164,6.613l.241-5.889Zm-9.9,19.566c0-7.058-4.367-11.858-10.763-11.858S10.244,43.972,10.244,51.1s4.3,11.784,10.788,11.784S31.783,58.156,31.783,51.03Z" transform="translate(0 -11.725)" fill="#eff3f5"/>
  <path id="Path_10" data-name="Path 10" d="M105.352,30.74l-.656,9.087c-8.147,0-13.528,3.928-13.528,9.817V70.676h-9.9V31.464H90.8l.148,5.239C94.093,32.849,99.042,30.74,105.352,30.74Z" transform="translate(-30.998 -11.725)" fill="#eff3f5"/>
  <path id="Path_11" data-name="Path 11" d="M122.8,51.028c0-12.149,8.438-20.29,21.088-20.29a21.564,21.564,0,0,1,13.454,4.491l-5.567,6.693a11.209,11.209,0,0,0-7.708-2.765c-6.545,0-10.98,4.726-10.98,11.858s4.361,11.852,11.054,11.852a11.554,11.554,0,0,0,8.871-3.489l5.567,6.545c-3.712,3.712-9.019,5.456-14.908,5.456C131.163,71.392,122.8,63.246,122.8,51.028Z" transform="translate(-46.838 -11.724)" fill="#eff3f5"/>
  <path id="Path_12" data-name="Path 12" d="M224.3,31.464v39.2h-9.526l-.223-5.889c-2.759,4.145-7.126,6.619-13.164,6.619-10.615,0-18.762-8.079-18.762-20.147,0-12.291,8.147-20.506,18.762-20.506,6.037,0,10.4,2.474,13.164,6.613l.223-5.889Zm-9.9,19.566c0-7.058-4.367-11.858-10.763-11.858S192.88,43.972,192.88,51.1s4.287,11.784,10.763,11.784S214.407,58.156,214.407,51.03Z" transform="translate(-69.658 -11.725)" fill="#eff3f5"/>
  <path id="Path_13" data-name="Path 13" d="M127.23,119.086l.866-1.4a4.98,4.98,0,0,0,2.635.68c.854,0,1.435-.359,1.435-.916s-.65-.872-1.571-1.107l-.761-.2c-1.553-.408-2.6-1.008-2.6-2.474,0-1.856,1.429-3.031,3.606-3.031a6.05,6.05,0,0,1,3.452.9l-.965,1.509a4.726,4.726,0,0,0-2.332-.619c-.835,0-1.417.309-1.417.835s.581.8,1.379,1l.767.223c1.565.408,2.808,1.126,2.808,2.74,0,1.738-1.534,2.895-3.829,2.895a5.24,5.24,0,0,1-3.47-1.039Z" transform="translate(-48.527 -42.196)" fill="#eff3f5"/>
  <path id="Path_14" data-name="Path 14" d="M140.9,115.425a4.914,4.914,0,1,1,4.918,4.769A4.574,4.574,0,0,1,140.9,115.425Zm7.423,0a2.524,2.524,0,1,0-2.505,2.777A2.5,2.5,0,0,0,148.323,115.425Z" transform="translate(-53.741 -42.215)" fill="#eff3f5"/>
  <path id="Path_15" data-name="Path 15" d="M159.6,104.32h2.314v13.275H159.6Z" transform="translate(-60.874 -39.789)" fill="#eff3f5"/>
  <path id="Path_16" data-name="Path 16" d="M166.79,116.487V111H169.1v5.394a1.967,1.967,0,0,0,3.928,0V111h2.32v5.518c0,2.295-1.707,3.829-4.274,3.829S166.79,118.782,166.79,116.487Z" transform="translate(-63.616 -42.337)" fill="#eff3f5"/>
  <path id="Path_17" data-name="Path 17" d="M189.145,116.34V118.2a6.254,6.254,0,0,1-2.351.427,2.7,2.7,0,0,1-2.808-2.895V106.61H186.3v2.716h2.709v1.856H186.3v4.083a1.237,1.237,0,0,0,1.237,1.379A4.058,4.058,0,0,0,189.145,116.34Z" transform="translate(-70.172 -40.663)" fill="#eff3f5"/>
  <path id="Path_18" data-name="Path 18" d="M194.3,105.479a1.371,1.371,0,1,1,2.74,0,1.305,1.305,0,0,1-1.361,1.361,1.324,1.324,0,0,1-1.379-1.361Zm.223,2.858h2.314v9.174h-2.314Z" transform="translate(-74.108 -39.705)" fill="#eff3f5"/>
  <path id="Path_19" data-name="Path 19" d="M201.09,115.425a4.914,4.914,0,1,1,4.918,4.769A4.574,4.574,0,0,1,201.09,115.425Zm7.423,0a2.524,2.524,0,1,0-2.505,2.777A2.5,2.5,0,0,0,208.513,115.425Z" transform="translate(-76.699 -42.215)" fill="#eff3f5"/>
  <path id="Path_20" data-name="Path 20" d="M228.66,114.269v5.765h-2.314V114.64a2.153,2.153,0,0,0-4.287,0v5.394h-2.32v-9.143h2.233l.031,1.157a3.742,3.742,0,0,1,3-1.324,3.415,3.415,0,0,1,3.656,3.544Z" transform="translate(-83.812 -42.229)" fill="#eff3f5"/>
  <path id="Path_21" data-name="Path 21" d="M236.88,119.086l.866-1.4a4.98,4.98,0,0,0,2.635.68c.854,0,1.435-.359,1.435-.916s-.65-.872-1.571-1.107l-.761-.2c-1.553-.408-2.6-1.008-2.6-2.474,0-1.856,1.429-3.031,3.606-3.031a6.05,6.05,0,0,1,3.452.9l-.965,1.509a4.726,4.726,0,0,0-2.332-.619c-.835,0-1.417.309-1.417.835s.581.8,1.379,1l.767.223c1.565.408,2.808,1.126,2.808,2.74,0,1.738-1.534,2.895-3.829,2.895a5.239,5.239,0,0,1-3.47-1.039Z" transform="translate(-90.349 -42.196)" fill="#eff3f5"/>
</svg>
